<svg version="1.1" id="Layer_1" xmlns="http://www.w3.org/2000/svg" x="0" y="0" viewBox="0 0 200 53.37" style="enable-background:new 0 0 200 53.37" xml:space="preserve">
  <style>
    .st1{fill:#33afa6}.st3{fill:#136d68}
  </style>
  <path d="M95.57 32.97c0 1.02-.21 1.98-.63 2.87-.42.89-1.06 1.67-1.93 2.34-.87.67-1.97 1.19-3.3 1.57-1.33.38-2.89.57-4.69.57-1.88 0-3.49-.19-4.84-.57-1.35-.38-2.47-.9-3.36-1.57-.9-.67-1.55-1.45-1.97-2.34a6.65 6.65 0 0 1-.63-2.87V18.63c0-2.09.66-3.59 1.97-4.49 1.32-.9 3.25-1.36 5.79-1.36h12.93l-2.65 4.99h-8.29c-.49 0-.88.02-1.15.07-.28.05-.48.14-.61.29-.13.14-.2.36-.22.64-.02.29-.02.67-.02 1.14v13.06c0 .69.25 1.28.74 1.77s1.26.73 2.3.73c1.01 0 1.73-.24 2.15-.73.42-.49.63-1.08.63-1.77v-2.53h-3.12l2.65-4.99h8.24v7.52zm18.13 6.94c-.58.01-1.24.02-2 .02h-5.9c-1.79 0-3.2-.2-4.23-.59-1.03-.39-1.79-.89-2.3-1.48-.51-.59-.82-1.23-.95-1.91-.13-.68-.2-1.3-.2-1.87V18.63c0-2.09.66-3.59 1.97-4.49 1.32-.9 3.25-1.36 5.79-1.36h11.32l-2.65 4.99h-6.68c-.49 0-.88.02-1.15.07-.28.05-.48.14-.61.29-.13.14-.2.36-.22.64-.02.29-.02.67-.02 1.14v3.64h10.41l-2.65 4.99h-7.77v4.25c0 .78.04 1.31.13 1.59.09.27.4.43.95.48h10.46l-2.65 5.03c-.11 0-.47.01-1.05.02zm21.83 0c-.58.01-1.24.02-2 .02h-5.9c-1.79 0-3.2-.2-4.23-.59-1.03-.39-1.79-.89-2.3-1.48-.51-.59-.82-1.23-.95-1.91-.13-.68-.2-1.3-.2-1.87V18.63c0-2.09.66-3.59 1.97-4.49 1.32-.9 3.25-1.36 5.79-1.36h11.32l-2.65 4.99h-6.68c-.49 0-.88.02-1.15.07-.28.05-.48.14-.61.29-.13.14-.2.36-.22.64-.02.29-.02.67-.02 1.14v3.64h10.41l-2.65 4.99h-7.77v4.25c0 .78.04 1.31.13 1.59.09.27.4.43.95.48h10.46l-2.65 5.03c-.11 0-.47.01-1.05.02zm32.8.02h-8.24l-8.29-11.67-2.04 2v9.67h-7.68V12.82h7.68v10.2l9.89-10.2h7.9l-11.28 11.13 12.06 15.98z" style="fill:#242d2b"/>
  <path class="st1" d="M178.64 22.35c-1.04 0-1.96-.11-2.76-.33-.8-.22-1.48-.53-2.02-.92a3.96 3.96 0 0 1-1.23-1.42c-.28-.56-.41-1.17-.41-1.85V6.44h4.49v11.4c0 .21.02.41.05.62.03.21.12.39.25.56.13.17.33.3.59.41.26.11.61.16 1.07.16.43 0 .78-.05 1.03-.16s.44-.25.58-.41c.13-.17.22-.35.26-.56.04-.21.06-.41.06-.62V6.44h4.51v11.4c0 .7-.11 1.33-.34 1.89-.23.56-.59 1.03-1.1 1.41-.51.38-1.17.68-1.99.9-.83.2-1.84.31-3.04.31zm16.97-15.91c1.04 0 1.85.11 2.43.34.58.23 1.02.51 1.32.84.29.34.47.7.54 1.08.07.38.1.74.1 1.07v3.07c0 .45-.03.91-.1 1.36-.07.45-.24.86-.51 1.23-.28.36-.69.66-1.25.89-.56.23-1.33.34-2.32.34h-3.53v5.44h-4.44V6.44h7.76zm-3.33 2.86v4.51h2.03c.32 0 .56-.01.73-.02.17-.01.29-.06.38-.14.08-.08.13-.22.15-.4.02-.19.03-.44.03-.77v-1.96c0-.29-.01-.51-.03-.68-.02-.16-.07-.29-.16-.37-.09-.08-.24-.13-.44-.14-.2-.01-.49-.02-.85-.02h-1.84z"/>
  <path d="M59.3 0 42.71 15.04h-21L38.36 0zm0 19.61L42.71 34.65H21.02l16.65-15.04z" style="fill:#0b7b7a"/>
  <path class="st3" d="M59.3 19.61 42.71 34.65h-1.42l16.65-15.04z"/>
  <path class="st1" d="m59.3 19.61-.03 20.71-14.42 13.05H22.07zM38.37 0 0 34.65V13.38L14.92 0z"/>
  <path class="st3" d="M39.72 0 23.13 15.04h-1.42L38.36 0z"/>
</svg>
